inDegrees=yes
name=ik_S41_A09_T01
DataType=double
version=3
OpenSimVersion=4.3-2021-08-27-4bc7ad9
endheader
time	pelvis_tilt	pelvis_list	pelvis_rotation	pelvis_tx	pelvis_ty	pelvis_tz	hip_flexion_r	hip_adduction_r	hip_rotation_r	knee_angle_r	knee_angle_r_beta	ankle_angle_r	subtalar_angle_r	mtp_angle_r	hip_flexion_l	hip_adduction_l	hip_rotation_l	knee_angle_l	knee_angle_l_beta	ankle_angle_l	subtalar_angle_l	mtp_angle_l	lumbar_extension	lumbar_bending	lumbar_rotation	arm_flex_r	arm_add_r	arm_rot_r	elbow_flex_r	pro_sup_r	wrist_flex_r	wrist_dev_r	arm_flex_l	arm_add_l	arm_rot_l	elbow_flex_l	pro_sup_l	wrist_flex_l	wrist_dev_l
26.75999999999952	-7.076592415641459	-5.718251685282236	21.79435074998579	0	0.9399999999999999	0	43.2672075005181	-10.04359387334869	-10.06786098325613	50.7707590867732	0.8861169098010218	0	0	0	43.2672075005181	-10.04359387334869	-10.06786098325613	50.7707590867732	0.8861169098010218	0	0	0	-7.198674729608949	-4.233884109247846	13.06734844559927	80.6861934257507	-6.446312274455779	-8.337858766095671	37.62877069685528	116.7683121390875	0	0	50.88166209690097	5.819295459605056	9.190462976764733	43.72714769228796	89.39459693563686	0	0
26.77999999999952	-7.069682302356065	-5.712778366259979	21.46942494003684	0	0.9399999999999999	0	43.2677181884834	-10.04355056247788	-10.06781721379341	50.77162356373147	0.8861319977702512	0	0	0	43.2677181884834	-10.04355056247788	-10.06781721379341	50.77162356373147	0.8861319977702512	0	0	0	-7.158718140191329	-4.283797739004735	13.39336284609354	81.34978998474159	-6.650425121277777	-8.614736005446822	34.70251578482664	118.4455761988616	0	0	50.88029590007623	5.886425491519148	9.160844736770846	43.64329554651902	89.48008326603784	0	0
26.79999999999952	-7.073110965353016	-5.755963926638641	21.46897264238584	0	0.9399999999999999	0	43.26849050427786	-10.04348309676996	-10.06774971677423	50.77289601835935	0.8861542062930899	0	0	0	43.26849050427786	-10.04348309676996	-10.06774971677423	50.77289601835935	0.8861542062930899	0	0	0	-7.181595299073585	-4.316211738508197	13.3505433742421	82.12603093160402	-6.546021549182626	-8.607609967494582	33.94747311694256	118.4419974145885	0	0	50.95014424345924	5.802879647075225	9.172553478505291	43.62056307396269	89.52682243804831	0	0
26.81999999999952	-7.066218316646267	-5.78075538998246	21.07003150689865	0	0.9399999999999999	0	43.26934804350503	-10.04340925051712	-10.06767546097028	50.77432622104509	0.886179168038927	0	0	0	43.26934804350503	-10.04340925051712	-10.06767546097028	50.77432622104509	0.886179168038927	0	0	0	-7.152777812507555	-4.405835513852531	13.77702853569593	82.76548790549803	-7.029908279847414	-8.242302241077764	27.81672762642944	119.250779844176	0	0	50.99846549753298	5.843924368368118	9.277710792514156	43.57655494963431	89.57235566973678	0	0
26.83999999999952	-7.070122458775059	-5.806121611107173	21.17849813284982	0	0.9399999999999999	0	43.27010566962332	-10.04334302390965	-10.06760919146098	50.77557117358172	0.8862008965597222	0	0	0	43.27010566962332	-10.04334302390965	-10.06760919146098	50.77557117358172	0.8862008965597222	0	0	0	-7.169136818848035	-4.422197937684825	13.73725084841059	83.18836379260995	-7.013468093861546	-7.566183934304668	27.33445564444692	118.6106607838445	0	0	51.02213048560009	5.864553031834721	9.345130613581	43.57126313463273	89.58812002029781	0	0
26.85999999999952	-7.067290329848372	-5.882301826687484	21.40331402144692	0	0.9399999999999999	0	43.27100898675334	-10.04326445576795	-10.06753042239938	50.77706091295281	0.8862268974167443	0	0	0	43.27100898675334	-10.04326445576795	-10.06753042239938	50.77706091295281	0.8862268974167443	0	0	0	-7.194347626712558	-4.489120929067705	13.69666933207913	83.63295811655614	-7.038023239689404	-6.983425225660152	24.25763790370757	119.2729845896901	0	0	51.13932979785476	6.000918543469614	9.524350244845611	43.47854341861832	89.67997572761742	0	0
26.87999999999952	-7.075381771767607	-5.922170778691035	21.57443774466877	0	0.9399999999999999	0	43.27200234161667	-10.04317839468248	-10.06744401093882	50.77870369261186	0.8862555693306795	0	0	0	43.27200234161667	-10.04317839468248	-10.06744401093882	50.77870369261186	0.8862555693306795	0	0	0	-7.206790492810261	-4.530780877756522	13.70961513081664	84.10033264103249	-7.251332311069898	-6.211302869076225	18.72142678332504	122.2186338842575	0	0	51.19804077953781	6.132444050230943	9.582671881455056	43.42191568216007	89.7393569359007	0	0
26.89999999999952	-7.088782069810477	-5.96125782933591	21.77586591696628	0	0.9399999999999999	0	43.27320812756307	-10.04307314822255	-10.0673385709773	50.78068107589639	0.8862900811795685	0	0	0	43.27320812756307	-10.04307314822255	-10.0673385709773	50.78068107589639	0.8862900811795685	0	0	0	-7.239287681290102	-4.556304593231894	13.6773607604345	84.47714568899717	-7.152836658969352	-5.677354920049476	16.48262575888835	122.5425173072373	0	0	51.3540766374597	6.34443512990455	9.510608558403341	43.2834029694284	89.73497909266021	0	0
26.91999999999951	-7.090386208703618	-5.966608783047126	21.90633519174176	0	0.9399999999999999	0	43.2737558024449	-10.04302559250448	-10.06729083472961	50.78158274322606	0.886305818243229	0	0	0	43.2737558024449	-10.04302559250448	-10.06729083472961	50.78158274322606	0.886305818243229	0	0	0	-7.24612806784639	-4.55518381538149	13.64238038499704	84.66961154406239	-6.874061747296124	-5.295761393195694	15.56211521208002	123.0557598765914	0	0	51.33437206623948	6.460016947632554	9.604786464333042	43.25903240381714	89.61730014250909	0	0
